<svg xmlns="http://www.w3.org/2000/svg" width="24px" height="24px" viewBox="-32 0 512 512">
  <path fill="#f2f2e6" stroke="#f2f2e6" stroke-width="13" d="M48 32C21.5 32 0 53.5 0 80v352c0 26.5 21.5 48 48 48h352c26.5 0 48-21.5 48-48V80c0-26.5-21.5-48-48-48zm140.695 64h178.24l-16.47 12.86v22.693c6.116.785 5.469 4.46 5.469 8.857v107.223c0 4.965-4.062 9.03-9.028 9.03h-3.324c-4.966 0-9.03-4.065-9.03-9.03V140.41c0-4.408-.64-8.086 5.522-8.861v-14.266l-47.424 38.893c.548 1.016 1.068 1.667 1.563 2.52c4.167 7.377 6.289 16.548 6.289 27.76c0 8.592-1.432 16.314-4.336 23.13c-2.89 6.817-6.407 12.384-10.508 16.674c-4.101 4.304-8.215 8.236-12.33 11.777c-4.113 3.548-7.629 7.247-10.508 11.088c-2.901 3.828-4.347 7.787-4.347 11.889c0 4.108 1.876 8.28 5.613 12.486c3.724 4.219 8.305 8.306 13.723 12.344c5.429 4.01 10.846 8.463 16.263 13.306c5.43 4.836 9.987 11.061 13.711 18.621c3.75 7.586 5.625 15.938 5.625 25.118c0 12.109-3.087 23.046-9.246 32.779c-6.172 9.693-14.219 17.429-24.101 23.1c-9.91 5.709-20.508 10.006-31.809 12.91c-11.328 2.877-22.565 4.322-33.79 4.322a139 139 0 0 1-21.421-1.666c-7.212-1.12-14.438-3.098-21.717-5.885c-7.291-2.806-13.75-6.25-19.35-10.39c-5.611-4.095-10.13-9.382-13.593-15.82c-3.464-6.44-5.184-13.68-5.184-21.72c0-9.538 2.657-18.385 7.983-26.634c5.325-8.19 12.382-15.026 21.158-20.442c15.313-9.525 39.336-15.41 72.031-17.636c-7.473-9.343-11.223-18.14-11.223-26.37c0-4.682 1.222-9.7 3.645-15.117a87 87 0 0 1-12.031.854c-17.563 0-32.396-5.71-44.44-17.207c-12.044-11.479-18.058-25.846-18.058-43.217c0-1.816.052-3.419.181-5.19H81.064zm31.38 38.334c-11.2 0-19.793 4.029-25.782 12.07q-8.983 12.03-8.984 29.147c0 9.72 1.64 19.616 4.921 29.707c3.269 10.085 8.622 19.09 16.122 27.025c7.473 7.956 16.171 11.926 26.054 11.926c11.016 0 19.623-3.69 25.795-11.072c6.145-7.37 9.23-16.674 9.23-27.88c0-9.544-1.626-19.536-4.894-29.986c-3.256-10.462-8.685-19.902-16.264-28.306c-7.552-8.432-16.303-12.631-26.199-12.631"/>
</svg>
